<svg width="1140" height="760" viewBox="0 0 1140 760" fill="none" xmlns="http://www.w3.org/2000/svg">
<path d="M134.44 666.53H986C986 666.53 1052.76 575.17 1017.62 502.53C982.48 429.89 940.32 406.53 875.89 315.12C811.46 223.71 695.41 139.41 553.72 189.21C412.03 239.01 359.82 329.62 294 351.08C228.18 372.54 50.1 413.53 134.44 666.53Z" fill="#DCDCDC"/>
<path d="M267.26 265.29L443.91 244.6C446.345 244.317 448.794 244.994 450.738 246.488C452.682 247.981 453.967 250.174 454.32 252.6L472.13 373.54C472.515 376.158 471.873 378.823 470.34 380.979C468.806 383.134 466.499 384.615 463.9 385.11L287.14 418.72C286.441 418.853 285.722 418.845 285.026 418.695C284.331 418.545 283.672 418.256 283.09 417.847C282.508 417.437 282.014 416.915 281.638 416.311C281.262 415.707 281.011 415.033 280.9 414.33L259.05 276.11C258.853 274.857 258.911 273.577 259.22 272.347C259.53 271.117 260.085 269.962 260.851 268.952C261.618 267.942 262.581 267.096 263.682 266.467C264.783 265.838 266 265.437 267.26 265.29Z" fill="#493F58"/>
<path d="M266.82 275.72L448.01 254.48L466.6 377.6L287.39 409.79L266.82 275.72Z" fill="#5C5668"/>
<path d="M281.75 419.75L366.71 472.51L564.09 428.99L473.56 383.25L281.75 419.75Z" fill="#493F58"/>
<path d="M469.64 391.27L327.02 419.83L371.85 447.96L515.5 417.73L469.64 391.27Z" fill="#423B4C"/>
<path d="M281.75 419.75V423.73L366.71 476.5V472.51L281.75 419.75Z" fill="#5C5668"/>
<path d="M513.11 188.87C513.11 188.87 505.31 265.87 554.53 316.54C554.53 316.54 558.92 324.82 590.1 316.54L601.79 327.75C601.79 327.75 632 274.64 657.34 258.31C682.68 241.98 705.1 245.4 705.1 245.4L700.23 232.73C700.23 232.73 654.91 240.04 639.32 234.19C623.73 228.34 595.95 206.9 595.95 206.9C595.95 206.9 569.15 215.67 566.71 215.67C564.27 215.67 535.52 158.17 513.11 188.87Z" fill="#F7BAC0"/>
<path d="M555 102.45C553.53 104.45 545.74 98.86 538.43 102.45C531.12 106.04 518.43 113.45 516.5 119.22C514.57 124.99 512.6 127.47 506.75 132.83C500.9 138.19 496.52 146.23 494.08 151.96C491.64 157.69 486.77 158.62 486.77 165.71C486.77 172.8 485.59 164.8 486.77 183.03C487.77 199.03 482.38 198.62 482.38 198.62C482.38 198.62 492.13 197.16 494.07 184.49C496.01 171.82 498.46 175.22 503.33 179.85C508.2 184.48 507.23 189.36 513.08 188.85C518.93 188.34 519.41 187.85 529.65 188.36C539.89 188.87 540.37 189.56 547.65 198.7C554.93 207.84 553.01 215.16 556.91 219.06C560.81 222.96 569.91 221.58 569.91 221.58C569.91 221.58 613.4 219.96 621.43 224.72C629.46 229.48 624.6 226.36 633.38 235.13C642.16 243.9 632.89 246.52 646.05 241.46C659.21 236.4 650.16 237.04 662.66 236.34C675.16 235.64 674.31 238.05 677.23 238.05C680.15 238.05 702.02 237.59 702.02 237.59C702.02 237.59 699.16 240.98 699.16 218.59C699.16 196.2 706.34 176.68 702.02 156.71C697.7 136.74 700.62 116.38 679.67 101.22C658.72 86.06 653.84 95.31 640.2 86.54C626.56 77.77 626.65 70.95 606.18 72.9C585.71 74.85 570 94.83 570 94.83L555 102.45Z" fill="#493F58"/>
<path d="M593.75 232.72C610.838 232.72 624.69 218.868 624.69 201.78C624.69 184.692 610.838 170.84 593.75 170.84C576.662 170.84 562.81 184.692 562.81 201.78C562.81 218.868 576.662 232.72 593.75 232.72Z" fill="white"/>
<path d="M570.61 164.99C578.143 164.99 584.25 158.883 584.25 151.35C584.25 143.817 578.143 137.71 570.61 137.71C563.077 137.71 556.97 143.817 556.97 151.35C556.97 158.883 563.077 164.99 570.61 164.99Z" fill="white"/>
<path d="M560.06 143.61C560.06 143.61 533.82 101.16 570 94.83C570 94.83 556.48 109.94 574.51 138.93L560.06 143.61Z" fill="white"/>
<path d="M570 160.57C572.315 168.347 572.973 176.523 571.93 184.57" stroke="white" stroke-width="0.5" stroke-miterlimit="10"/>
<path d="M576.94 158.31C576.94 158.31 585.8 171.24 596.67 172.59" stroke="white" stroke-width="0.5" stroke-miterlimit="10"/>
<path d="M392.51 416.18C392.51 416.18 399.98 416.01 402.71 416.18C405.44 416.35 409.43 418.34 410.43 420.58C411.43 422.82 410.18 427.05 406.2 428.79C402.22 430.53 397.49 429.54 396 430.79C394.51 432.04 393.26 437.79 390.77 439.5C388.28 441.21 388 444 389 449.45C390 454.9 390.3 459 390.3 459C390.3 459 358.74 437.46 331.53 461.68L336.12 445.5C336.12 445.5 334.19 439.5 331.95 437.37C329.71 435.24 326.81 434.3 324.82 435.79C322.83 437.28 322.08 438.29 320.09 438.91C318.1 439.53 316.36 440.78 316.09 438.91C315.82 437.04 317.33 433.06 319.57 430.82C321.81 428.58 321.57 427.58 323.05 425.34C324.53 423.1 330.27 416.34 328.05 416.21C325.83 416.08 325.81 414.15 323.05 416.14C320.29 418.13 318.88 418.87 317.61 419.86C316.34 420.85 316.06 415.19 316.06 415.19C316.06 415.19 317.83 407.92 319.06 406.42L320.3 404.93C320.3 404.93 320.8 402.69 324.03 401.45C325.642 400.786 327.317 400.287 329.03 399.96C329.03 399.96 329.03 396.23 331.52 394.73C334.01 393.23 334.26 393.49 335.52 393.49C338.193 393.837 340.796 394.593 343.24 395.73C344.98 396.73 349.46 398.47 350.46 397.73C351.46 396.99 353.2 394.73 355.69 394.99C358.18 395.25 362.91 394.74 364.69 395.99C366.47 397.24 368.42 395.99 371.69 397.73C374.96 399.47 381.4 403.45 384.38 408.43C386.443 411.617 389.228 414.272 392.51 416.18Z" fill="#F7BAC0"/>
<path d="M395.49 416.13C395.49 416.13 399.35 418.96 399.1 420.7C398.85 422.44 398.35 428.54 395.99 430.78C395.99 430.78 399.24 430.19 401.47 429.87C403.7 429.55 406.03 429.09 407.14 428.29C408.436 427.318 409.501 426.072 410.26 424.64C411.05 423.24 411.62 422.48 410.42 420.57C408.93 418.2 408.36 417.73 405.99 417.01C403.62 416.29 403.99 416.15 401.36 416.12C398.73 416.09 395.49 416.13 395.49 416.13Z" fill="#F3ADAD"/>
<path d="M366.7 396.57C366.7 396.57 362.39 395.69 360.27 396.31C358.15 396.93 356.91 398.05 355.27 398.18C353.659 398.367 352.031 398.367 350.42 398.18C349.703 398.026 348.973 397.943 348.24 397.93C348.24 397.93 350.67 396.58 351.91 395.76C353.15 394.94 353.91 394.11 355.64 394.19C357.642 394.139 359.646 394.206 361.64 394.39C363.416 394.888 365.118 395.621 366.7 396.57Z" fill="#F3ADAD"/>
<path d="M329.11 398.32C329.902 398.97 330.878 399.355 331.9 399.42C333.64 399.54 335.9 400.29 336.76 400.29C337.62 400.29 338.62 400.66 339.49 400.29C340.36 399.92 340.11 401.48 339.49 401.78C338.87 402.08 337.77 403.28 336.76 402.97C335.75 402.66 331.9 400.8 331.27 400.67C330.333 400.583 329.411 400.371 328.53 400.04C328.007 399.748 327.404 399.632 326.81 399.71C326.81 399.71 329 399.13 329.11 398.32Z" fill="#F3ADAD"/>
<path d="M399.39 420.54C397.73 420.348 396.057 420.308 394.39 420.42C392.9 420.67 391.74 419.84 390.49 420.42C389.24 421 388 421.66 387.13 422.04C386.508 422.359 385.983 422.839 385.61 423.43C385.237 424.021 385.03 424.701 385.01 425.4C385.303 426.916 385.344 428.471 385.13 430C384.76 431.87 385.13 432.86 384.63 434.85C384.217 436.288 383.719 437.7 383.14 439.08C382.77 440.2 385.26 444.6 385.26 444.6L389.53 452.02C389.53 452.02 386.92 442.52 389.87 439.95C390.717 439.318 391.501 438.604 392.21 437.82C392.56 437.26 393.59 435.2 394.11 434.04C394.451 433.089 394.904 432.183 395.46 431.34C395.96 430.75 398.19 430.34 398.58 429.5C398.995 428.513 399.301 427.484 399.49 426.43C399.687 425.813 399.785 425.168 399.78 424.52L399.39 420.54Z" fill="#F3ADAD"/>
<path d="M355.3 398.18C354.4 398.24 352.81 400.06 351.94 400.68C351.07 401.3 351.26 400.05 348.94 399.68C346.62 399.31 345.11 398.81 343.74 399.56C342.37 400.31 341.74 400.78 341.5 402.1C341.244 403.209 340.757 404.252 340.07 405.16C339.116 405.799 338.014 406.184 336.87 406.28C335.28 406.53 331.8 407.15 331.36 408.15C330.906 409.112 330.551 410.117 330.3 411.15C330.18 411.9 332.54 413.5 331.36 414.44C330.348 415.209 329.432 416.095 328.63 417.08C328.04 417.971 327.509 418.9 327.04 419.86C326.84 420.48 338.27 425.86 339.04 425.71C339.81 425.56 344.76 420.17 347.04 419.21C349.32 418.25 356.49 415.93 357.61 415.41C358.73 414.89 365.45 413.89 365.45 413.89C365.45 413.89 369.06 413.27 368.19 411.96C367.32 410.65 366.45 406.79 365.45 405.18C364.45 403.57 363.21 400.82 361.72 399.58C360.23 398.34 358.96 396.95 357.61 397.49C356.862 397.788 356.089 398.019 355.3 398.18Z" fill="#F3ADAD"/>
<path d="M317.62 419.83C317.096 419.34 316.683 418.743 316.41 418.08C316.29 417.39 317.22 416.35 318.34 416.08C319.46 415.81 320.58 416 321.34 415.36C322.1 414.72 323.21 414.47 323.34 413.72C323.402 412.851 323.402 411.979 323.34 411.11C323.34 410.36 323.84 409.49 324.09 409.99C324.34 410.49 323.72 412.35 324.09 412.79C324.588 413.457 325.227 414.006 325.96 414.4C326.46 414.47 327.7 414.7 328.2 414.83C328.7 414.96 330.07 415.54 329.32 416.21C328.803 416.733 328.399 417.356 328.13 418.04C328.13 418.04 326.6 415.14 325.78 415.36C324.96 415.58 324.22 414.86 323.1 416.09C321.965 417.238 320.715 418.267 319.37 419.16C318.822 419.466 318.233 419.692 317.62 419.83Z" fill="#5C5668"/>
<path d="M202 407.54C202 407.54 206 459.05 214.61 472.26C221.31 482.54 229.88 483.26 233.19 483.21C242.81 483.01 250.45 481.55 254.1 477.21C257.75 472.87 267.77 464.31 267.41 404.89L202 407.54Z" fill="#5C5668"/>
<path d="M202 407.54C202 407.54 204 396.92 231.2 394.6C258.4 392.28 267.37 400.6 267.37 403.23C267.37 405.86 269.69 414.85 238.83 418.16C207.97 421.47 202 411.85 202 407.54Z" fill="#423B4C"/>
<path d="M231.55 424.81C231.55 424.81 237.91 424.47 236.91 433.43H228C228 433.43 227.51 426.81 231.55 424.81Z" fill="#423B4C"/>
<path d="M234.28 425.55C234.28 425.55 229.97 425.46 229.6 438.73C229.1 456.9 239.72 466.73 239.72 466.73L239.55 472.21C239.55 472.21 222.96 473.21 217.98 449.3C213 425.39 221.98 422.1 223.98 422.1C225.98 422.1 234.28 425.55 234.28 425.55Z" fill="#423B4C"/>
<path d="M475.09 394.7C475.09 394.7 471.44 396.03 471.27 399.01L471.1 402.01C469.526 402.63 468.188 403.733 467.28 405.16C466.12 407.32 466.12 410.3 465.45 412.63C464.78 414.96 463.79 420.93 463.45 422.25C463.11 423.57 460.8 428.06 462.12 428.25C463.44 428.44 464.77 428.75 466.27 426.92C467.77 425.09 473.9 419.45 475.06 417.79C476.22 416.13 480.54 414.14 482.53 412.31C484.52 410.48 488.67 407.31 491.32 405.31C493.97 403.31 499.62 399 499.62 399L510.24 394.69C510.24 394.69 477.8 392.88 475.09 394.7Z" fill="#F7BAC0"/>
<path d="M471.53 402.83C471.53 402.83 476.88 400.71 477.75 400.42C478.62 400.13 481.57 399.42 482.35 399.22C483.13 399.02 486.46 398.43 487.24 398.31C488.02 398.19 489.69 398.02 490.56 397.94C491.43 397.86 492.63 397.28 492.34 397.19C491.691 397.144 491.039 397.144 490.39 397.19C488.695 397.297 487.006 397.49 485.33 397.77C484.33 397.94 481.85 398.31 480.97 398.56C480.09 398.81 478.44 398.97 477.61 399.18C476.58 399.452 475.577 399.813 474.61 400.26C473.875 400.561 473.166 400.922 472.49 401.34C472.204 401.47 471.962 401.68 471.791 401.944C471.621 402.208 471.53 402.516 471.53 402.83Z" fill="#F3ADAD"/>
<path d="M470.08 410.26C470.33 410.09 472.82 408.97 474.23 408.43C475.64 407.89 478.09 407.02 479.33 406.65C480.57 406.28 483.02 405.41 483.85 405.2C484.68 404.99 488 403.46 488.5 403.25C489.27 403.01 489.988 402.631 490.62 402.13C491.12 401.59 491.7 400.84 490.79 400.76C489.472 400.77 488.161 400.951 486.89 401.3C485.77 401.59 483.49 402.13 482.29 402.5C481.09 402.87 479.39 403.5 478.02 403.87C476.65 404.24 475.28 404.62 473.75 405.24C472.375 405.718 471.037 406.3 469.75 406.98C469.007 407.882 468.379 408.873 467.88 409.93C467.88 409.93 466.01 416.4 465.68 417.4C465.35 418.4 464.68 420.26 464.35 421.34C464.02 422.42 463.81 423.87 464.06 423.75C464.535 423.309 464.854 422.727 464.97 422.09C465.3 421.09 466.67 418.73 467.29 417.4C468.005 416.21 468.588 414.946 469.03 413.63C469.32 412.489 469.67 411.364 470.08 410.26Z" fill="#F3ADAD"/>
<path d="M475.26 412.83C474.6 413.16 471.61 414.83 471.03 415.73C470.45 416.63 470.57 415.73 469.41 418.38C468.25 421.03 467.71 422.07 467.25 423.11C466.79 424.15 466.46 425.06 466.13 425.64C465.8 426.22 465.13 427.05 465.51 426.93C466.275 426.579 466.999 426.147 467.67 425.64C468.21 425.18 468.42 424.64 469.16 423.11C469.695 422.015 470.14 420.878 470.49 419.71C470.685 418.872 471.023 418.073 471.49 417.35C471.95 416.73 471.74 416.77 473.4 416.06C474.635 415.562 475.84 414.994 477.01 414.36C477.8 413.9 479.75 413.28 480.41 412.83C481.423 412.137 482.49 411.525 483.6 411C484.43 410.67 486.21 409.8 486.79 409.55C487.37 409.3 489.15 408.31 488.2 408.55C487.25 408.79 485.75 409.13 484.09 409.71C482.43 410.29 479.15 411.33 478.16 411.78C477.17 412.23 475.26 412.83 475.26 412.83Z" fill="#F3ADAD"/>
<path d="M337.22 424.32C334.103 429.444 333.082 435.572 334.37 441.43C336.61 451.05 336.12 445.43 336.12 445.43C336.12 445.43 338.61 428.55 353.93 426.7C369.5 424.82 383.3 433.35 388.53 446.98C388.53 446.98 396 436.98 380.32 423.28C370.67 414.89 350.87 411.14 337.22 424.32Z" fill="#423B4C"/>
<path d="M336.12 445.47C336.12 445.47 336.75 435.35 341.12 430.79C345.49 426.23 367.38 416.67 381.12 433.31C381.12 433.31 388.42 439.62 388.5 447.03C388.5 447.03 382.88 433.66 371.96 429.45C361.04 425.24 346.13 426.21 340.56 434.77C338.443 438.037 336.938 441.663 336.12 445.47Z" fill="#493F58"/>
<path d="M355.646 435.109C364.251 432.509 369.882 425.949 368.223 420.457C366.563 414.964 358.242 412.618 349.637 415.218C341.032 417.817 335.402 424.377 337.061 429.87C338.72 435.363 347.041 437.708 355.646 435.109Z" fill="#423B4C"/>
<path d="M355.3 429.146C363.866 426.506 369.614 420.485 368.139 415.698C366.663 410.911 358.523 409.17 349.957 411.811C341.391 414.451 335.643 420.472 337.119 425.259C338.594 430.046 346.734 431.786 355.3 429.146Z" fill="#493F58"/>
<path d="M858.82 666.53C858.82 713.53 570 666.53 570 666.53C570 666.53 554.71 564.45 550.88 531.12C544.18 534.28 536.48 537.91 527.65 542.04C474.39 566.92 326 564.44 320.58 561.95C315.16 559.46 317.1 551.41 316.58 544.53C316.06 537.65 316.58 517.9 316.58 517.9C316.58 517.9 316.27 502 321.9 490.1C327.53 478.2 334.16 451.27 334.16 451.27C334.16 451.27 336.5 436.57 351.11 433.27C365.72 429.97 373.34 431 382 440C390.66 449 390.33 451.28 390.33 451.28C390.33 451.28 391.96 467.21 394.61 470.2C397.26 473.19 397.09 474.85 397.09 474.85L399.84 479.85C404.793 477.621 409.588 475.055 414.19 472.17C419.66 468.48 439.08 455.47 444.55 448.31C450.02 441.15 492.34 400.21 536.14 363.87C566.22 338.92 579.86 333.92 585.46 333.23C587.415 331.843 589.233 330.272 590.89 328.54C594.38 324.54 595.68 323.43 606.82 300.66C620.61 272.49 640.37 258.28 658.56 251.26C662.064 247.234 666.133 243.738 670.64 240.88C685.64 231.76 696.72 221.98 701.94 233.71C705.06 240.71 707.71 249.15 710.17 255.89C711.83 260.42 713.4 264.21 714.97 266.3C715.08 266.44 715.19 266.59 715.32 266.73C719.63 271.9 732.81 278.73 741.04 281.94C749.52 285.2 774.29 296.94 784.04 308.01C793.79 319.08 814.04 330.83 829.04 399.28C844.04 467.73 858.82 654.52 858.82 666.53Z" fill="#E63778"/>
<path d="M715.3 266.71C715.17 266.57 715.05 266.42 714.95 266.28C713.38 264.18 711.81 260.4 710.15 255.87C711.59 258.89 713.32 262.53 715.3 266.71Z" fill="#E62132"/>
</svg>
