<svg width="931" height="547" viewBox="0 0 931 547" fill="none" xmlns="http://www.w3.org/2000/svg">
<path d="M177.739 10.8349C270.455 37.8791 326.501 48.4454 390.047 49.059C440.444 49.5456 490.923 49.556 541.319 49.0578C604.623 48.432 660.299 37.862 752.957 10.8349C943.355 -44.7015 991.944 126.353 842.374 269.283C694.994 410.12 1017.37 613 627.169 528.205C627.169 528.205 581.851 516.124 538.514 507.296C491.078 497.633 440.291 497.635 392.845 507.246C349.244 516.079 303.527 528.205 303.527 528.205C-86.67 613 235.702 410.12 88.3221 269.283C-61.248 126.353 -12.6587 -44.7015 177.739 10.8349Z" fill="#607D8B" fill-opacity="0.25"/>
</svg>
