<svg width="36" height="36" viewBox="0 0 36 36" fill="none" xmlns="http://www.w3.org/2000/svg">
<path fill-rule="evenodd" clip-rule="evenodd" d="M25.1364 12C25.1364 12 22.9476 10.205 20.3636 10L20.1307 10.4885C22.4665 11.088 23.5385 11.945 24.6591 13C22.7276 11.967 20.8218 11 17.5 11C14.1782 11 12.2724 11.967 10.3409 13C11.4615 11.945 12.7368 10.992 14.8693 10.4885L14.6364 10C11.9255 10.2675 9.86364 12 9.86364 12C9.86364 12 7.41952 15.713 7 23C9.46273 25.9765 13.2045 26 13.2045 26L13.9873 24.908C12.6585 24.424 11.1599 23.5605 9.86364 22C11.409 23.225 13.7415 24.5 17.5 24.5C21.2585 24.5 23.591 23.225 25.1364 22C23.8406 23.5605 22.3419 24.424 21.0127 24.908L21.7955 26C21.7955 26 25.5373 25.9765 28 23C27.5805 15.713 25.1364 12 25.1364 12ZM12.7273 19C12.7273 20.105 13.4747 21 14.3977 21C15.3208 21 16.0682 20.105 16.0682 19C16.0682 17.895 15.3208 17 14.3977 17C13.4747 17 12.7273 17.895 12.7273 19ZM18.9318 19C18.9318 20.105 19.6792 21 20.6023 21C21.5253 21 22.2727 20.105 22.2727 19C22.2727 17.895 21.5253 17 20.6023 17C19.6792 17 18.9318 17.895 18.9318 19Z" fill="white"/>
</svg>
