<svg width="41" height="41" viewBox="0 0 41 41" fill="none" xmlns="http://www.w3.org/2000/svg">
<path fill-rule="evenodd" clip-rule="evenodd" d="M9.98458 12.1306C9.6785 12.3793 9.43125 12.694 9.2609 13.0518C9.09055 13.4095 9.00141 13.8013 9 14.1984V25.83C9 27.309 10.1925 28.5142 11.6538 28.5142H29.3462C30.8075 28.5142 32 27.309 32 25.83V14.1984C32 13.3636 31.6125 12.6227 31.0154 12.1297L21.2497 12.0004L9.98458 12.1306ZM20.5 22.056L11.6538 16.3592V26.7256H29.3462V16.3592L20.5 22.056Z" fill="white"/>
<path d="M11.5337 12.0009C11.2603 12.0009 11.0047 12.0537 10.7596 12.1306L13.3374 13.7895H27.4222L30 12.1297C29.75 12.047 29.489 12.0033 29.226 12L11.5337 12.0009Z" fill="white"/>
</svg>
