<svg width="366" height="268" viewBox="0 0 366 268" fill="none" xmlns="http://www.w3.org/2000/svg">
<path d="M8.80496 76.4215L56.5287 231.029L126.995 235.191L187.677 204.023L171.237 42.9734L8.80496 76.4215Z" fill="#0170BA"/>
<path d="M173.662 196.87L123.216 221.915L92.3984 72.2582L158.173 58.7138L173.662 196.87Z" fill="#29A9DF"/>
<path d="M72.5124 200.031L63.597 170.947L83.4497 166.859L87.4689 180.286L115.407 181.962L138.605 169.756L135.214 144.153L59.2119 159.804L53.2823 140.144L98.2109 108.606L46.2728 119.301L40.3387 101.651L150.431 78.9801L152.95 100.346L111.875 129.283L155.191 120.364L162.151 181.572L119.611 202.379L72.5124 200.031Z" fill="white"/>
<path d="M72.5124 200.031L63.597 170.947L83.4497 166.859L87.4689 180.286L114.984 181.937L119.189 202.357L72.5124 200.031Z" fill="#EFEFEF"/>
<path d="M46.2728 119.301L40.3387 101.651L96.087 90.1708L108.343 149.687L59.2119 159.804L53.2823 140.144L98.2109 108.606L46.2728 119.301Z" fill="#EFEFEF"/>
<path d="M39.0373 55.7402L68.1146 49.7526L66.7661 43.204L46.3117 47.4159L43.3767 33.163L63.8311 28.951L62.2049 21.0541L33.1276 27.0417L39.0373 55.7402Z" fill="black"/>
<path d="M102.005 42.7739L72.5263 48.8441L71.4158 43.4511L92.0707 39.1978L90.9602 33.8048L70.3053 38.0581L66.577 19.953L96.0554 13.8828L97.7212 21.9723L76.2642 26.3907L77.3747 31.7838L98.8318 27.3653L102.005 42.7739Z" fill="black"/>
<path d="M135.494 35.8778L106.416 41.8655L105.306 36.4724L125.76 32.2604L124.65 26.8674L104.195 31.0794L100.467 12.9743L129.544 6.98665L131.448 16.2318L110.593 20.5264L111.465 24.7638L132.321 20.4692L135.494 35.8778Z" fill="black"/>
<path d="M194.798 42.6116L154.487 198.733L212.311 239.193L280.301 244.565L350.623 99.3754L194.798 42.6116Z" fill="#E44D26"/>
<path d="M272.112 231.154L216.044 225.954L268.159 82.8912L331.258 105.877L272.112 231.154Z" fill="#F16529"/>
<path d="M261.376 102.11L309.662 119.7L301.107 136.605L254.937 119.786L227.235 109.694L222.116 129.728L247.702 139.048L292.333 155.307L266.924 210.702L222.952 206.989L187.665 181.83L195.376 151.688L214.999 158.836L209.633 173.565L229.928 187.841L254.323 190.262L265.435 165.738L198.488 141.351L213.089 84.5202L261.376 102.11Z" fill="white"/>
<path d="M198.488 141.351L213.089 84.5202L261.183 102.04L254.744 119.716L227.235 109.694L222.116 129.728L247.702 139.048L241.196 156.908L198.488 141.351Z" fill="#EFEFEF"/>
<path d="M209.633 173.565L229.928 187.841L222.952 206.989L187.665 181.83L195.376 151.688L214.999 158.836L209.633 173.565Z" fill="#EFEFEF"/>
<path d="M225.089 6.71707L215.028 34.3353L223.877 37.5589L227.164 28.537L237.36 32.2512L234.073 41.2731L243.115 44.5668L253.175 16.9486L244.134 13.6549L240.579 23.4133L230.383 19.6991L233.938 9.9407L225.089 6.71707Z" fill="black"/>
<path d="M263.739 31.0195L254.89 27.7959L258.243 18.5898L284.406 28.1205L281.053 37.3266L272.396 34.173L265.554 52.9535L256.897 49.7999L263.739 31.0195Z" fill="black"/>
<path d="M290.304 30.4738L280.243 58.092L288.9 61.2456L293.931 47.4365L297.127 57.9326C297.317 58.5573 298.046 58.835 298.603 58.4956L307.58 53.0345L302.751 66.2913L312.178 69.7251L322.239 42.1069L312.812 38.673L303.491 45.1081C302.925 45.4994 302.141 45.214 301.959 44.5498L298.961 33.6273L290.304 30.4738Z" fill="black"/>
<path d="M318.4 71.7868L328.46 44.1685L337.117 47.3221L329.873 67.2072L343.34 72.1128L340.523 79.8459L318.4 71.7868Z" fill="black"/>
</svg>
