<svg width="406" height="569" viewBox="0 0 406 569" fill="none" xmlns="http://www.w3.org/2000/svg">
<path d="M0.5 113L38.5 522.5L205 569L365.5 522.5L405.5 113H0.5Z" fill="#E5A228"/>
<path d="M335.5 497.5L202.5 534V145.5H366.5L335.5 497.5Z" fill="#F1BF26"/>
<path d="M99 453.5L92.5 373.5L142 372L145 415L202 429.5L258.5 415L264 349H91.5L109 163.5H310L319 272.5H271L265 219.5L205 217.5L155.5 219.5L148 297.5H320.5L306 453.5L200.5 484L99 453.5Z" fill="white"/>
<path d="M99 453.5L92.5 373.5L142 372L145 415L202 429.5L202.5 429.372V483.422L200.5 484L99 453.5Z" fill="#EFEFEF"/>
<path d="M155.5 219.5L148 297.5H202.5V349H91.5L109 163.5H202.5V217.5L155.5 219.5Z" fill="#EFEFEF"/>
<path d="M166.5 52.5H131.5L131.971 76.5H190.5V0.5H166.5V52.5Z" fill="black"/>
<path d="M204.5 2H274V18.5H236L274 58.5V75.5H204.5V56H242L204.5 18.5V2Z" fill="black"/>
</svg>
