<svg xmlns="http://www.w3.org/2000/svg" width="35.523" height="35.523" viewBox="0 0 35.523 35.523"><defs><style>.a{fill:#6a91f3;}</style></defs><g transform="translate(-1175 241.654)"><path class="a" d="M1192.762-241.654A17.764,17.764,0,0,0,1175-223.892a17.764,17.764,0,0,0,17.762,17.762,17.764,17.764,0,0,0,17.762-17.762,17.764,17.764,0,0,0-17.762-17.762ZM1187.6-214.8h-4.326v-13.014h4.326Zm-2.163-14.791h-.028a2.239,2.239,0,0,1-2.39-2.248,2.257,2.257,0,0,1,2.447-2.249,2.248,2.248,0,0,1,2.419,2.249,2.256,2.256,0,0,1-2.447,2.248ZM1203.2-214.8h-4.325v-6.962c0-1.75-.626-2.943-2.192-2.943a2.368,2.368,0,0,0-2.219,1.582,2.962,2.962,0,0,0-.142,1.056v7.268h-4.325s.057-11.793,0-13.014h4.325v1.843a4.3,4.3,0,0,1,3.9-2.148c2.846,0,4.98,1.86,4.98,5.857Zm0,0"/></g></svg>