<svg width="2102" height="563" viewBox="0 0 2102 563" fill="none" xmlns="http://www.w3.org/2000/svg">
<path d="M817.5 548.5V14.5H2002C2049.22 14.5 2087.5 52.7797 2087.5 100V463C2087.5 510.22 2049.22 548.5 2002 548.5H817.5Z" fill="white" stroke="#00B1A2" stroke-width="29"/>
<path d="M0 100C0 44.7715 44.7715 0 100 0H1005V563H100C44.7715 563 0 518.228 0 463V100Z" fill="#00B1A2"/>
<path d="M193.983 383.743C179.022 383.743 165.766 380.619 154.213 374.371C142.661 368.122 133.571 359.223 126.943 347.673C120.314 335.933 117 322.016 117 305.922V181.521H150.805V308.194C150.805 316.525 152.509 324.194 155.918 331.2C159.516 338.016 164.535 343.507 170.974 347.673C177.602 351.838 185.272 353.921 193.983 353.921C202.884 353.921 210.554 351.838 216.993 347.673C223.622 343.507 228.64 338.016 232.049 331.2C235.458 324.194 237.162 316.525 237.162 308.194V181.521H271.251V308.194C271.251 316.525 272.955 324.194 276.364 331.2C279.962 338.016 284.981 343.507 291.42 347.673C297.859 351.838 305.529 353.921 314.43 353.921C323.331 353.921 331.001 351.838 337.44 347.673C343.878 343.507 348.802 338.016 352.211 331.2C355.81 324.194 357.609 316.525 357.609 308.194V181.521H391.413V305.922C391.413 322.016 388.099 335.933 381.471 347.673C374.842 359.223 365.752 368.122 354.2 374.371C342.648 380.619 329.391 383.743 314.43 383.743C306.097 383.743 298.048 382.607 290.284 380.335C282.708 378.063 275.891 374.56 269.831 369.826C263.77 365.093 258.562 359.412 254.207 352.785C250.04 359.412 244.832 365.093 238.583 369.826C232.333 374.371 225.421 377.874 217.845 380.335C210.46 382.607 202.506 383.743 193.983 383.743Z" fill="white"/>
<path d="M502.685 384C486.398 384 472.1 380.97 459.79 374.911C447.67 368.663 438.201 360.142 431.383 349.349C424.565 338.367 421.156 325.776 421.156 311.575C421.156 296.616 424.186 283.457 430.247 272.096C436.307 260.735 444.64 251.836 455.245 245.398C465.85 238.96 478.065 235.741 491.89 235.741C507.419 235.741 520.203 239.055 530.24 245.682C540.277 252.309 547.663 261.208 552.397 272.38C557.321 283.551 559.783 296.048 559.783 309.871C559.783 311.764 559.689 313.942 559.499 316.403C559.31 318.865 559.026 320.758 558.647 322.083H455.813C456.949 329.657 459.695 336 464.051 341.113C468.407 346.036 473.899 349.823 480.527 352.474C487.156 354.935 494.541 356.166 502.685 356.166H541.603V384H502.685ZM455.529 299.93H527.115C526.926 296.332 526.357 292.735 525.411 289.137C524.653 285.539 523.327 282.131 521.434 278.912C519.729 275.693 517.457 272.948 514.616 270.676C511.965 268.214 508.745 266.321 504.957 264.995C501.17 263.48 496.814 262.723 491.89 262.723C486.209 262.723 481.19 263.859 476.834 266.131C472.479 268.214 468.786 271.054 465.756 274.652C462.725 278.06 460.358 282.037 458.654 286.581C457.139 290.936 456.097 295.385 455.529 299.93Z" fill="white"/>
<path d="M664.437 383.743C649.665 383.743 636.598 380.619 625.235 374.371C613.872 368.122 604.971 359.223 598.532 347.673C592.283 335.933 589.158 322.111 589.158 306.206V173H621.826V257.354H622.11C625.14 252.242 629.117 247.792 634.041 244.005C638.965 240.218 644.457 237.283 650.517 235.201C656.578 233.118 663.017 232.076 669.834 232.076C683.659 232.076 695.78 235.201 706.196 241.449C716.801 247.508 725.039 256.029 730.91 267.011C736.97 277.993 740 290.869 740 305.638C740 317.188 738.201 327.791 734.603 337.448C731.194 346.915 726.175 355.152 719.547 362.158C713.108 369.164 705.249 374.56 695.969 378.347C686.689 381.945 676.179 383.743 664.437 383.743ZM664.437 355.909C672.77 355.909 680.156 353.921 686.595 349.945C693.034 345.779 698.052 340.099 701.65 332.904C705.249 325.709 707.048 317.377 707.048 307.91C707.048 298.632 705.249 290.395 701.65 283.2C698.052 276.005 693.034 270.324 686.595 266.159C680.345 261.993 673.054 259.91 664.721 259.91C656.388 259.91 649.002 261.993 642.564 266.159C636.125 270.135 631.106 275.721 627.508 282.916C623.909 290.111 622.11 298.443 622.11 307.91C622.11 317.377 623.909 325.709 627.508 332.904C631.106 340.099 636.125 345.779 642.564 349.945C649.002 353.921 656.294 355.909 664.437 355.909Z" fill="white"/>
<path d="M899 234.473L807.219 440L776.93 439.269L807.34 371.269L755 231L787.599 231.786L824.781 340.4L868.711 233.743L899 234.473Z" fill="white"/>
<path d="M1100.9 394V364.361H1185.81C1191.26 364.361 1195.96 363.044 1199.91 360.409C1204.05 357.775 1207.25 354.387 1209.5 350.247C1211.95 345.919 1213.17 341.403 1213.17 336.698C1213.17 331.617 1212.04 327.007 1209.79 322.867C1207.53 318.727 1204.33 315.434 1200.19 312.987C1196.24 310.541 1191.64 309.318 1186.37 309.318H1151.11C1140.01 309.318 1130.05 307.059 1121.21 302.543C1112.56 297.838 1105.69 291.346 1100.62 283.066C1095.54 274.786 1093 265.001 1093 253.71C1093 242.419 1095.44 232.539 1100.33 224.071C1105.22 215.414 1111.9 208.64 1120.36 203.747C1128.83 198.854 1138.42 196.408 1149.14 196.408H1234.04V226.047H1152.24C1147.35 226.047 1142.93 227.27 1138.98 229.716C1135.03 232.163 1131.93 235.362 1129.67 239.314C1127.6 243.265 1126.57 247.5 1126.57 252.016C1126.57 256.721 1127.6 261.049 1129.67 265.001C1131.93 268.764 1134.94 271.869 1138.7 274.316C1142.65 276.574 1147.07 277.703 1151.96 277.703H1188.06C1200.1 277.703 1210.44 280.055 1219.09 284.76C1227.93 289.464 1234.7 295.957 1239.4 304.237C1244.29 312.517 1246.74 322.02 1246.74 332.746C1246.74 345.355 1244.2 356.269 1239.12 365.49C1234.23 374.523 1227.46 381.58 1218.81 386.661C1210.35 391.554 1200.76 394 1190.04 394H1100.9Z" fill="#5A5A5A"/>
<path d="M1346.59 393.729C1331.73 393.729 1318.47 390.53 1306.81 384.131C1295.15 377.733 1285.94 369.171 1279.17 358.445C1272.4 347.53 1269.01 335.298 1269.01 321.749C1269.01 308.2 1272.4 296.062 1279.17 285.335C1285.94 274.421 1295.15 265.764 1306.81 259.366C1318.47 252.968 1331.73 249.769 1346.59 249.769H1364.07V277.432H1346.02C1337.37 277.432 1329.66 279.408 1322.89 283.359C1316.31 287.123 1311.14 292.392 1307.37 299.167C1303.61 305.941 1301.73 313.469 1301.73 321.749C1301.73 330.029 1303.61 337.556 1307.37 344.331C1311.14 351.105 1316.31 356.469 1322.89 360.42C1329.66 364.184 1337.37 366.066 1346.02 366.066H1364.07V393.729H1346.59Z" fill="#5A5A5A"/>
<path d="M1392.34 393.53V187.47H1424.78V263.966C1430.61 257.756 1437.38 253.24 1445.09 250.417C1452.8 247.594 1460.61 246.183 1468.51 246.183C1481.67 246.183 1492.86 249.006 1502.07 254.651C1511.48 260.108 1518.62 267.73 1523.51 277.515C1528.4 287.113 1530.85 298.121 1530.85 310.541V393.53H1498.69V310.824C1498.69 303.485 1496.9 297.086 1493.33 291.629C1489.94 285.984 1485.43 281.655 1479.79 278.644C1474.34 275.445 1468.22 273.846 1461.45 273.846C1455.06 273.846 1449.04 275.351 1443.4 278.362C1437.76 281.373 1433.24 285.607 1429.86 291.065C1426.47 296.522 1424.78 302.732 1424.78 309.695V393.53H1392.34Z" fill="#5A5A5A"/>
<path d="M1638.3 392.973C1623.44 392.973 1610.28 389.68 1598.8 383.094C1587.33 376.319 1578.21 367.287 1571.44 355.996C1564.86 344.516 1561.57 331.72 1561.57 317.606C1561.57 303.492 1564.86 290.79 1571.44 279.499C1578.21 268.02 1587.33 258.987 1598.8 252.401C1610.28 245.626 1623.44 242.239 1638.3 242.239C1652.97 242.239 1666.04 245.626 1677.51 252.401C1688.98 258.987 1698.01 268.02 1704.59 279.499C1711.36 290.79 1714.74 303.492 1714.74 317.606C1714.74 331.72 1711.36 344.516 1704.59 355.996C1698.01 367.287 1688.98 376.319 1677.51 383.094C1666.04 389.68 1652.97 392.973 1638.3 392.973ZM1638.3 365.311C1647.14 365.311 1654.85 363.241 1661.43 359.101C1668.01 354.772 1673.09 349.033 1676.66 341.882C1680.23 334.543 1682.02 326.451 1682.02 317.606C1682.02 308.762 1680.23 300.764 1676.66 293.613C1673.09 286.274 1668.01 280.534 1661.43 276.394C1654.85 272.066 1647.14 269.902 1638.3 269.902C1629.27 269.902 1621.47 272.066 1614.88 276.394C1608.49 280.534 1603.41 286.274 1599.65 293.613C1596.08 300.764 1594.29 308.762 1594.29 317.606C1594.29 326.451 1596.08 334.543 1599.65 341.882C1603.41 349.033 1608.49 354.772 1614.88 359.101C1621.47 363.241 1629.27 365.311 1638.3 365.311Z" fill="#5A5A5A"/>
<path d="M1814.05 392.973C1799.2 392.973 1786.03 389.68 1774.56 383.094C1763.09 376.319 1753.97 367.287 1747.2 355.996C1740.61 344.516 1737.32 331.72 1737.32 317.606C1737.32 303.492 1740.61 290.79 1747.2 279.499C1753.97 268.02 1763.09 258.987 1774.56 252.401C1786.03 245.626 1799.2 242.239 1814.05 242.239C1828.72 242.239 1841.79 245.626 1853.26 252.401C1864.73 258.987 1873.76 268.02 1880.34 279.499C1887.11 290.79 1890.5 303.492 1890.5 317.606C1890.5 331.72 1887.11 344.516 1880.34 355.996C1873.76 367.287 1864.73 376.319 1853.26 383.094C1841.79 389.68 1828.72 392.973 1814.05 392.973ZM1814.05 365.311C1822.89 365.311 1830.6 363.241 1837.18 359.101C1843.77 354.772 1848.84 349.033 1852.42 341.882C1855.99 334.543 1857.78 326.451 1857.78 317.606C1857.78 308.762 1855.99 300.764 1852.42 293.613C1848.84 286.274 1843.77 280.534 1837.18 276.394C1830.6 272.066 1822.89 269.902 1814.05 269.902C1805.03 269.902 1797.22 272.066 1790.64 276.394C1784.24 280.534 1779.17 286.274 1775.41 293.613C1771.83 300.764 1770.05 308.762 1770.05 317.606C1770.05 326.451 1771.83 334.543 1775.41 341.882C1779.17 349.033 1784.24 354.772 1790.64 359.101C1797.22 363.241 1805.03 365.311 1814.05 365.311Z" fill="#5A5A5A"/>
<path d="M1919.38 393.06V187H1952V393.06H1919.38Z" fill="#5A5A5A"/>
</svg>
