<svg width="248" height="279" viewBox="0 0 248 279" fill="none" xmlns="http://www.w3.org/2000/svg">
<g clip-path="url(#clip0)">
<path d="M123.571 278.482C119.733 278.482 116.152 277.459 112.826 275.668L78.7989 255.457C73.682 252.642 76.2405 251.619 77.7755 251.107C84.6832 248.805 85.9624 248.293 93.1259 244.2C93.8934 243.688 94.9168 243.944 95.6843 244.456L121.78 260.062C122.803 260.574 124.083 260.574 124.85 260.062L226.93 200.963C227.954 200.451 228.466 199.428 228.466 198.148V80.206C228.466 78.9268 227.954 77.9034 226.93 77.3917L124.85 18.5484C123.827 18.0368 122.548 18.0368 121.78 18.5484L19.6997 77.3917C18.6764 77.9034 18.1647 79.1826 18.1647 80.206V198.148C18.1647 199.172 18.6764 200.451 19.6997 200.963L47.5863 217.081C62.6809 224.756 72.147 215.801 72.147 206.847V90.4396C72.147 88.9046 73.4262 87.3695 75.2171 87.3695H88.265C89.8 87.3695 91.335 88.6487 91.335 90.4396V206.847C91.335 227.058 80.3339 238.827 61.1459 238.827C55.2615 238.827 50.6564 238.827 37.6085 232.431L10.7453 217.081C4.09345 213.243 0 206.079 0 198.404V80.4618C0 72.7866 4.09345 65.6231 10.7453 61.7855L112.826 2.68632C119.222 -0.895441 127.92 -0.895441 134.316 2.68632L236.397 61.7855C243.048 65.6231 247.142 72.7866 247.142 80.4618V198.404C247.142 206.079 243.048 213.243 236.397 217.081L134.316 276.18C130.99 277.715 127.153 278.482 123.571 278.482ZM155.039 197.381C110.267 197.381 101.057 176.914 101.057 159.517C101.057 157.981 102.336 156.446 104.127 156.446H117.431C118.966 156.446 120.245 157.47 120.245 159.005C122.292 172.564 128.176 179.216 155.295 179.216C176.786 179.216 185.996 174.355 185.996 162.842C185.996 156.191 183.438 151.33 149.922 148.004C122.036 145.189 104.639 139.049 104.639 116.791C104.639 96.0681 122.036 83.7878 151.202 83.7878C183.949 83.7878 200.067 95.0447 202.114 119.605C202.114 120.373 201.858 121.14 201.346 121.908C200.835 122.42 200.067 122.931 199.3 122.931H185.996C184.717 122.931 183.438 121.908 183.182 120.629C180.112 106.558 172.181 101.952 151.202 101.952C127.664 101.952 124.85 110.139 124.85 116.279C124.85 123.699 128.176 126.001 159.9 130.095C191.369 134.188 206.207 140.073 206.207 162.075C205.952 184.589 187.531 197.381 155.039 197.381Z" fill="#539E43"/>
</g>
<defs>
<clipPath id="clip0">
<rect width="247.142" height="279" fill="white"/>
</clipPath>
</defs>
</svg>
