<svg width="178" height="69" viewBox="0 0 178 69" fill="none" xmlns="http://www.w3.org/2000/svg">
<path d="M84 53.5H98.5H103V49V9.5V5H98.5H59H54.5V9.5V53.5V58.5V59.5V64H59H79.5H84V59.5V53.5ZM103.5 49V53.5H108H128.5H133V49V24H134V49V53.5H138.5H148.5H153V49V24H154.5V49V53.5H159H168.5H173V49V9.5V5H168.5H108H103.5V9.5V49ZM49 53.5H53.5V49V9V4.5H49H9H4.5V9V49V53.5H9H29H33.5V49V23.5H34.5V49V53.5H39H49ZM84.5 34H83.5V23.5H84.5V34Z" stroke="#CB3837" stroke-width="9"/>
<path d="M177.5 0H58V2.5L177.5 1.5V0Z" fill="#CB3837"/>
</svg>
