<svg width="36" height="36" viewBox="0 0 36 36" fill="none" xmlns="http://www.w3.org/2000/svg">
<path d="M27.9665 11.2788C27.298 11.5667 26.5953 11.7674 25.8757 11.8761C26.2131 11.8197 26.7092 11.2101 26.9074 10.9633C27.2175 10.5885 27.4536 10.1583 27.6035 9.69547C27.622 9.65935 27.6352 9.6144 27.599 9.58709C27.5813 9.57923 27.5618 9.57592 27.5424 9.57746C27.523 9.579 27.5044 9.58534 27.4881 9.59591C26.703 10.0152 25.8686 10.3345 25.0043 10.5466C24.9743 10.5559 24.9424 10.5565 24.9122 10.5484C24.8819 10.5403 24.8546 10.5238 24.8333 10.5008C24.7667 10.4212 24.6939 10.347 24.6157 10.2787C24.2569 9.96968 23.8504 9.72064 23.4121 9.54127C22.8271 9.30425 22.1962 9.20246 21.5663 9.24348C20.9547 9.2848 20.3585 9.45315 19.8156 9.73777C19.2723 10.0226 18.7926 10.415 18.4058 10.8911C18.0045 11.3856 17.7167 11.9622 17.5626 12.5801C17.431 13.1659 17.4157 13.7718 17.5177 14.3635C17.5318 14.463 17.523 14.4771 17.4296 14.463C14.1427 14.1284 11.0991 12.5791 8.89452 10.1184C8.79496 10.0047 8.74124 10.0047 8.6593 10.1272C8.21684 10.9452 8.04968 11.8841 8.18268 12.8045C8.31567 13.725 8.74169 14.5781 9.39761 15.2375C9.56502 15.3961 9.73686 15.5547 9.92629 15.6992C9.35216 15.6562 8.79234 15.4992 8.27953 15.2375C8.17997 15.174 8.12975 15.211 8.12094 15.3256C8.11486 15.4891 8.12401 15.6528 8.14826 15.8146C8.24886 16.5827 8.55153 17.3103 9.02536 17.9232C9.4992 18.536 10.1272 19.0121 10.8452 19.3028C11.0207 19.3791 11.2043 19.4352 11.3924 19.4702C10.8606 19.5767 10.3148 19.5937 9.77738 19.5204C9.65932 19.4975 9.61435 19.5565 9.65929 19.6702C9.93576 20.3939 10.3927 21.035 10.9868 21.5323C11.5808 22.0296 12.2922 22.3668 13.0533 22.5117C13.2075 22.5381 13.3608 22.5381 13.5149 22.5751C13.5061 22.5892 13.4964 22.5892 13.4876 22.6025C13.107 23.184 11.7854 23.6157 11.1704 23.8307C10.0418 24.2333 8.83954 24.3869 7.64604 24.2809C7.4566 24.2527 7.41696 24.2545 7.36586 24.2809C7.31475 24.3074 7.3597 24.3585 7.4205 24.4069C7.66015 24.5655 7.90418 24.7065 8.15353 24.8413C8.90133 25.2401 9.69049 25.5559 10.5069 25.7832C12.6061 26.4158 14.8344 26.4867 16.9695 25.9889C19.1046 25.4911 21.0718 24.4419 22.6747 22.9461C25.1681 20.4685 26.0422 17.0516 26.0422 13.6313C26.0422 13.4982 26.1999 13.4233 26.2951 13.3537C26.9254 12.8628 27.4807 12.2825 27.9435 11.6312C28.0154 11.5369 28.0513 11.4201 28.0449 11.3017V11.2832C28.044 11.2277 28.051 11.2409 27.9665 11.2788ZM13.492 26.2123C13.4647 26.2123 13.1502 26.2123 13.492 26.2123V26.2123ZM14.1881 26.2308C14.1881 26.1964 14.5555 26.2308 14.1881 26.2308V26.2308Z" fill="white"/>
<path d="M14.188 26.2299C14.5554 26.2299 14.188 26.1955 14.188 26.2299V26.2299Z" fill="white"/>
</svg>
